<svg id="katman_1" data-name="katman 1" xmlns="http://www.w3.org/2000/svg" viewBox="0 0 187.37 185.47"><defs><style>.cls-1,.cls-2{fill:#1f1f1f;}.cls-2{font-size:52.18px;font-family:Montserrat-Black, Montserrat;font-weight:800;}.cls-3{letter-spacing:-0.01em;}</style></defs><path class="cls-1" d="M546.5,367.36c-35.22,0-70.44-.09-105.66.1-5.11,0-5.85-2.16-5.85-6.45s.92-6.59,5.95-6.56c30.3.2,60.6.31,90.9.09C540,354.48,541.63,362.17,546.5,367.36Z" transform="translate(-434.47 -250.92)"/><path class="cls-1" d="M542,252.33c1.75,1.14,7.22.12,3.16,4.73-4.49,5.1-9,9.17-17.19,9-27.75-.72-55.53-.28-83.3-.32-11.07,0-12.24-2.29-7-13.31,4.41-2.38,9.18-1.14,13.76-1.17q40-.19,80,0C535,251.22,538.71,250.19,542,252.33Z" transform="translate(-434.47 -250.92)"/><path class="cls-1" d="M523.84,345q-41.91,0-83.81,0c-3.65,0-5-1.44-5-5.19s1.37-5,5-5q36.76.15,73.53.06C519.34,334.84,520.6,340.34,523.84,345Z" transform="translate(-434.47 -250.92)"/><path class="cls-1" d="M525.06,275.87c-4.28,6.75-8.45,9.77-15.49,9.65-22.32-.37-44.66-.08-67-.17-3.21,0-7.44,1.54-7.56-4.6s3.92-4.85,7.29-4.86C469.48,275.85,496.66,275.87,525.06,275.87Z" transform="translate(-434.47 -250.92)"/><path class="cls-1" d="M437.73,326c-4.93-6.75-5.05-11,5.12-10.89,15.2.19,30.39,0,45.59,0,9.32,0,9.32.05,16.34,9.56l-10.51,1.23A269.83,269.83,0,0,1,437.73,326Z" transform="translate(-434.47 -250.92)"/><path class="cls-1" d="M505.57,295.44c-4.46,7.38-9.18,10.25-16.54,10-15.52-.49-31.07-.12-46.6-.17-3.43,0-7.41,1.06-7.48-4.86s3.84-5,7.33-5C462.85,295.43,483.43,295.44,505.57,295.44Z" transform="translate(-434.47 -250.92)"/><text class="cls-2" transform="translate(0.56 171.38)"><tspan class="cls-3">K</tspan><tspan x="39.4" y="0">ıtapp</tspan></text></svg>